Coordinates
version=1
nRows=11
nColumns=42
inDegrees=yes

Units are S.I. units (second, meters, Newtons, ...)
If the header above contains a line with 'inDegrees', this indicates whether rotational values are in degrees (yes) or radians (no).

endheader
time	pelvis_tilt	pelvis_list	pelvis_rotation	pelvis_tx	pelvis_ty	pelvis_tz	hip_flexion_r	hip_adduction_r	hip_rotation_r	knee_angle_r	knee_adduction_r	knee_angle_r_beta	ankle_angle_r	subtalar_angle_r	mtp_angle_r	hip_flexion_l	hip_adduction_l	hip_rotation_l	knee_angle_l	knee_adduction_l	knee_angle_l_beta	ankle_angle_l	subtalar_angle_l	mtp_angle_l	lumbar_extension	lumbar_bending	lumbar_rotation	arm_flex_r	arm_add_r	arm_rot_r	elbow_flex_r	pro_sup_r	wrist_flex_r	wrist_dev_r	arm_flex_l	arm_add_l	arm_rot_l	elbow_flex_l	pro_sup_l	wrist_flex_l	wrist_dev_l
      1.80000000	     -1.87773760	     -6.28753221	      2.24490273	      0.73858490	      0.85456009	     -0.36745370	     12.87675726	      6.35921435	      1.06128258	     13.07992182	      8.07555174	      0.22828770	      1.09841157	     -9.33314609	     -7.50449297	      4.51032664	    -13.48542012	      0.76939688	     61.27985795	     12.54134055	      1.06953529	     -4.14450357	    -15.93161452	     -7.50449297	     -4.22029248	      9.22531762	     -4.47080088	     -7.13348102	    -13.50061160	     -2.82896276	     24.08297187	     90.00000001	      0.00000000	      0.00000000	     -9.46763125	     -9.51732129	    -12.05512000	     43.61906261	     90.00000001	      0.00000000	      0.00000000
      1.81000000	     -1.88668048	     -6.12127732	      2.12230884	      0.75035972	      0.85616206	     -0.36698060	     11.61577984	      6.27769560	      1.22158336	     12.32906728	      8.08176509	      0.21518282	      1.74436863	     -8.72001864	     -7.50439578	      6.58995867	    -13.28499578	      0.67023794	     63.63249104	     11.83963147	      1.11059648	     -3.05353216	    -16.23017477	     -7.50439578	     -4.26179891	      8.93940903	     -3.88415573	     -6.70145256	    -13.54967033	     -2.49956017	     24.08809734	     90.00000001	      0.00000000	      0.00000000	     -9.34800921	     -9.40616331	    -12.21672277	     42.34002867	     90.00000001	      0.00000000	      0.00000000
      1.82000000	     -1.87454280	     -5.88699087	      2.02605883	      0.76181412	      0.85772002	     -0.36668526	     10.36987270	      6.11087805	      1.33887437	     11.63128358	      8.04626631	      0.20300419	      2.31644074	     -8.07637316	     -7.50431285	      8.67316429	    -12.96150252	      0.62092789	     65.61093385	     11.20902198	      1.14512682	     -1.74095556	    -16.36031038	     -7.50431285	     -4.38002907	      8.57385855	     -3.36668263	     -6.17987200	    -13.60417901	     -2.16706498	     24.17825106	     90.00000001	      0.00000000	      0.00000000	     -9.20405011	     -9.24894892	    -12.36971749	     41.15913674	     90.00000001	      0.00000000	      0.00000000
      1.83000000	     -1.97416590	     -5.62526018	      1.94447140	      0.77312196	      0.85902494	     -0.36632679	      9.19519051	      5.89795158	      1.35316061	     10.79379658	      8.01597488	      0.18838729	      2.88260149	     -7.37170791	     -7.50422865	     10.87095561	    -12.57009465	      0.56009710	     67.20401888	     10.58390254	      1.17293140	     -0.28355303	    -16.31154761	     -7.50422865	     -4.36791086	      8.15355036	     -2.86787646	     -5.65843231	    -13.64233052	     -1.77102723	     24.29428033	     90.00000001	      0.00000000	      0.00000000	     -9.03983059	     -9.15535654	    -12.61426398	     39.90232469	     90.00000001	      0.00000000	      0.00000000
      1.84000000	     -2.16962566	     -5.34525988	      1.88066606	      0.78437408	      0.86007926	     -0.36607459	      8.09023712	      5.64541076	      1.33752181	      9.86698094	      7.98380356	      0.17221130	      3.41441539	     -6.62244071	     -7.50412368	     13.15804598	    -12.12396797	      0.53134717	     68.41317694	     10.04331041	      1.19403519	      1.24187054	    -16.02219053	     -7.50412368	     -4.21257573	      7.70864453	     -2.43442166	     -5.11840145	    -13.72760289	     -1.22607400	     24.45197668	     90.00000001	      0.00000000	      0.00000000	     -8.84939470	     -9.01378143	    -13.02963137	     38.53517012	     90.00000001	      0.00000000	      0.00000000
      1.85000000	     -2.29821964	     -5.02236794	      1.82151314	      0.79542417	      0.86101691	     -0.36579698	      6.97285743	      5.33848535	      1.23650939	      9.05160441	      7.96676486	      0.15798030	      3.90390965	     -5.91984961	     -7.50402644	     15.32613595	    -11.59962056	      0.55882094	     69.21090742	      9.62620966	      1.20795821	      2.75865747	    -15.69653412	     -7.50402644	     -4.16605008	      7.19666559	     -2.01763692	     -4.50743539	    -13.76671666	     -0.72333866	     24.68440062	     90.00000001	      0.00000000	      0.00000000	     -8.69373532	     -8.92332684	    -13.38552478	     37.35586809	     90.00000001	      0.00000000	      0.00000000
      1.86000000	     -2.42322464	     -4.68391256	      1.80349905	      0.80610758	      0.86177268	     -0.36578066	      5.90749695	      5.01709987	      1.13328058	      8.29042486	      7.89606182	      0.14469521	      4.39387222	     -5.22468951	     -7.50395290	     17.47412434	    -10.96168379	      0.62297256	     69.60614528	      9.23064659	      1.21485641	      4.27584667	    -15.47159028	     -7.50395290	     -4.19281393	      6.71406975	     -1.70176999	     -3.77086400	    -13.90825647	     -0.35632165	     24.97428367	     90.00000001	      0.00000000	      0.00000000	     -8.55858040	     -8.90148768	    -13.62500922	     36.28790785	     90.00000001	      0.00000000	      0.00000000
      1.87000000	     -2.53726436	     -4.32369575	      1.75546557	      0.81703746	      0.86235292	     -0.36571700	      4.75647268	      4.63687683	      1.04103916	      7.40142374	      7.90818203	      0.12917921	      4.88281006	     -4.38619820	     -7.50378991	     19.45816996	    -10.34811863	      0.76894495	     69.54224591	      9.12593662	      1.21374116	      5.69447561	    -14.71899860	     -7.50378991	     -4.16381158	      6.18668440	     -1.41542126	     -3.08157158	    -14.08354390	      0.50247782	     25.31759752	     90.00000001	      0.00000000	      0.00000000	     -8.33221787	     -8.75011095	    -14.46831051	     34.93714916	     90.00000001	      0.00000000	      0.00000000
      1.88000000	     -2.71106578	     -4.03216246	      1.72105775	      0.82778022	      0.86258604	     -0.36568662	      3.77505195	      4.34482775	      0.87451495	      6.70509926	      7.88998464	      0.11702606	      5.36198689	     -3.75780875	     -7.50371749	     21.47822693	     -9.75236875	      0.82945205	     69.14594954	      8.91685402	      1.20682448	      6.93135541	    -14.54733008	     -7.50371749	     -4.08895941	      5.74333960	     -1.14020270	     -2.32575174	    -14.18430717	      0.79178877	     25.67093205	     90.00000001	      0.00000000	      0.00000000	     -8.31174352	     -8.74791237	    -14.59538136	     34.03196661	     90.00000001	      0.00000000	      0.00000000
      1.89000000	     -2.88411786	     -3.74224319	      1.65879940	      0.83853843	      0.86259478	     -0.36552628	      2.81199750	      4.08157828	      0.69874019	      6.04473355	      7.82715863	      0.10550050	      5.85124948	     -3.12160720	     -7.50365109	     23.37106873	     -9.21040135	      0.93046625	     68.35352529	      8.89965220	      1.19299407	      7.96584658	    -14.24209308	     -7.50365109	     -4.00411091	      5.27641041	     -0.84093898	     -1.58666158	    -14.27324589	      1.10733591	     26.05652669	     90.00000001	      0.00000000	      0.00000000	     -8.26926068	     -8.75627464	    -14.85851629	     33.09969005	     90.00000001	      0.00000000	      0.00000000
      1.90000000	     -2.90527779	     -3.70760867	      1.36802264	      0.84860679	      0.86243226	     -0.36499214	      2.07628274	      4.11130035	      0.29810766	      6.11737286	      7.83530971	      0.10676830	      6.03168489	     -2.90507764	     -7.50361361	     25.12107711	     -9.16069471	      0.81346050	     67.44881131	      8.95580793	      1.17720383	      8.15470846	    -13.71102968	     -7.50361361	     -4.28880971	      5.10349778	     -0.35129978	     -0.61270451	    -14.42332947	      1.17584513	     26.61532325	     90.00000001	      0.00000000	      0.00000000	     -8.39056293	     -8.80456320	    -14.89777508	     32.96440946	     90.00000001	      0.00000000	      0.00000000
